<?xml version="1.0" encoding="UTF-8"?>
<svg version="1.1" xmlns="http://www.w3.org/2000/svg" width="2479" height="2475">
<path d="M0 0 C2.0765739 -0.00697788 4.15314758 -0.01401886 6.22972107 -0.02111816 C12.82632717 -0.0403919 19.42290006 -0.04529334 26.01953125 -0.046875 C27.14145622 -0.04746414 28.2633812 -0.04805328 29.41930389 -0.04866028 C61.4559603 -0.06054435 93.34708335 0.07928515 125.2769165 2.97528076 C127.9029614 3.20944997 130.52992516 3.42746066 133.15771484 3.64111328 C226.74200132 11.27975731 318.92134446 30.26539737 540.83203125 110.203125 C542.04509535 110.75879559 543.25831327 111.31413049 544.47167969 111.86914062 C570.79331334 123.91860927 596.85185773 136.56593784 622.12744141 150.69482422 C624.99519186 152.29411672 627.8720839 153.87611217 630.75 155.45703125 C646.71972063 164.2679116 662.31741467 173.62164577 677.83203125 183.203125 C678.67330566 183.7202002 679.51458008 184.23727539 680.38134766 184.77001953 C702.36253469 198.30666926 723.9930644 212.70149598 744.91748047 227.82128906 C747.02031764 229.33902158 749.13100296 230.84546546 751.2421875 232.3515625 C760.86128863 239.2324693 770.32289164 246.29698249 779.67578125 253.53515625 C781.88102413 255.24102348 784.09078453 256.94092266 786.30078125 258.640625 C799.58260737 268.88320706 812.53705772 279.50014617 825.30419922 290.3762207 C828.5834867 293.16593167 831.91110549 295.88454044 835.26953125 298.578125 C840.95981986 303.20356428 846.2770272 308.19209087 851.62109375 313.20703125 C854.0056261 315.44227233 856.41965185 317.6301278 858.89453125 319.765625 C864.01936749 324.19703731 868.96516662 328.82317274 873.92765808 333.43418884 C875.16119487 334.5799978 876.39537649 335.7251131 877.63032532 336.86940002 C887.38623153 345.91559364 896.93328484 355.14499224 906.32641602 364.56713867 C908.42153217 366.66769604 910.52205435 368.76274374 912.62304688 370.85742188 C913.98599838 372.22103311 915.34864022 373.58495393 916.7109375 374.94921875 C917.32457657 375.56083359 917.93821564 376.17244843 918.57044983 376.80259705 C922.31791809 380.57013799 925.87162387 384.46006663 929.33750916 388.48841858 C931.08194622 390.48985934 932.92241109 392.35935381 934.83203125 394.203125 C938.00293123 397.33158464 940.95773085 400.57167852 943.859375 403.94921875 C945.79680912 406.1628811 947.78332313 408.32537522 949.78417969 410.48168945 C954.59320945 415.6661668 959.14988312 420.97681975 963.5859375 426.48828125 C965.92033715 429.30985995 968.35193723 432.00903212 970.83203125 434.703125 C975.72571385 440.0328039 980.29410969 445.57008988 984.83203125 451.203125 C985.86497358 452.46819299 986.89888783 453.7324678 987.93359375 454.99609375 C994.20336412 462.66079527 1000.368977 470.38366403 1006.359375 478.26953125 C1008.08361638 480.5334556 1009.81720719 482.79008945 1011.55078125 485.046875 C1020.17661682 496.29415509 1028.63114426 507.64227256 1036.83203125 519.203125 C1037.39100098 519.99009766 1037.9499707 520.77707031 1038.52587891 521.58789062 C1063.5313255 556.86481612 1086.73442807 593.45531152 1107.83203125 631.203125 C1108.72607666 632.79616455 1108.72607666 632.79616455 1109.63818359 634.42138672 C1124.59327446 661.10982976 1138.70561725 688.1146646 1151.35888672 715.97607422 C1152.73910644 718.99956516 1154.1415172 722.01132804 1155.5546875 725.01953125 C1196.68880568 812.87668347 1225.88505039 907.21177563 1253.83203125 1061.203125 C1253.95106812 1062.03120667 1254.07010498 1062.85928833 1254.19274902 1063.71246338 C1259.51426851 1100.98609287 1263.0972601 1138.58858275 1264.83203125 1176.203125 C1264.89558304 1177.56171631 1264.89558304 1177.56171631 1264.9604187 1178.94775391 C1265.83212346 1198.15827046 1266.03494513 1217.35217527 1266.01953125 1236.578125 C1266.01926437 1237.32868038 1266.0189975 1238.07923576 1266.01872253 1238.85253525 C1265.97852647 1329.29863076 1256.77563713 1419.80866122 1229.83203125 1537.203125 C1229.57386627 1538.26865601 1229.57386627 1538.26865601 1229.31048584 1539.35571289 C1209.93375271 1619.32104893 1181.26231132 1697.0011025 1145.83203125 1771.203125 C1145.24866558 1772.43024581 1144.66550073 1773.65746211 1144.08251953 1774.88476562 C1136.9798747 1789.82436758 1129.74236441 1804.67087399 1121.83203125 1819.203125 C1121.26822754 1820.24307617 1120.70442383 1821.28302734 1120.12353516 1822.35449219 C1105.55752817 1849.16875367 1090.1936309 1875.4407084 1073.83203125 1901.203125 C1072.81979492 1902.80559082 1072.81979492 1902.80559082 1071.78710938 1904.44042969 C1064.82340561 1915.46358983 1057.86936589 1926.44854667 1050.171875 1936.9765625 C1047.56804723 1940.56714971 1045.07435824 1944.22238502 1042.58203125 1947.890625 C1021.30667233 1979.02953336 997.72599971 2008.90526493 973.2265625 2037.5703125 C971.75863526 2039.28906204 970.29524884 2041.01161496 968.83203125 2042.734375 C963.34522011 2049.18059026 957.77684248 2055.52657171 952.0546875 2061.765625 C950.15781361 2063.84585225 948.29810182 2065.94869398 946.45703125 2068.078125 C941.9223782 2073.2861372 937.21919099 2078.33810053 932.51416016 2083.39160156 C930.87796654 2085.15365623 929.25120499 2086.92404236 927.625 2088.6953125 C918.11221558 2098.98812095 908.23270469 2108.91059852 898.33203125 2118.828125 C897.62808228 2119.53466217 896.9241333 2120.24119934 896.19885254 2120.96914673 C894.15245229 2123.02147537 892.10227949 2125.069956 890.05078125 2127.1171875 C889.13888031 2128.03205681 889.13888031 2128.03205681 888.20855713 2128.96540833 C884.49053828 2132.66381415 880.65397101 2136.16845806 876.67004395 2139.57919312 C874.81260639 2141.22028737 873.06685958 2142.9336301 871.33203125 2144.703125 C868.4073601 2147.67369906 865.34583564 2150.41041619 862.1875 2153.12890625 C859.81556071 2155.21762891 857.50280542 2157.35875903 855.19311523 2159.515625 C849.76723566 2164.58136232 844.23609072 2169.40753454 838.4453125 2174.05859375 C835.83355502 2176.20187456 833.32837823 2178.4269283 830.83203125 2180.703125 C825.66004044 2185.40939152 820.26855721 2189.80796176 814.83203125 2194.203125 C813.06074552 2195.66090883 811.28991491 2197.1192458 809.51953125 2198.578125 C803.67761729 2203.35562243 797.75146417 2208.02001955 791.80224609 2212.66259766 C789.72114935 2214.28982448 787.645637 2215.92401308 785.5703125 2217.55859375 C775.88751624 2225.16399782 766.03886386 2232.4836633 756.01611328 2239.63378906 C753.95140605 2241.11735022 751.90282849 2242.62015913 749.859375 2244.1328125 C735.13661672 2254.98988833 719.82534421 2264.99210941 704.55981445 2275.06256104 C703.08236115 2276.03787437 701.60645165 2277.01552565 700.13085938 2277.99365234 C670.40795744 2297.68474811 639.3186446 2315.5157221 607.83203125 2332.203125 C606.80625977 2332.74759277 605.78048828 2333.29206055 604.72363281 2333.85302734 C531.65879718 2372.50457338 454.59632326 2404.09240142 359.83203125 2431.203125 C358.56416779 2431.55473694 358.56416779 2431.55473694 357.27069092 2431.91345215 C269.82197321 2456.11019538 179.71843169 2470.20524974 55.6640625 2475.40625 C53.5874886 2475.41322788 51.51091492 2475.42026886 49.43434143 2475.42736816 C42.83773533 2475.4466419 36.24116244 2475.45154334 29.64453125 2475.453125 C28.52260628 2475.45371414 27.4006813 2475.45430328 26.24475861 2475.45491028 C-5.7918978 2475.46679435 -37.68302085 2475.32696485 -69.612854 2472.43096924 C-72.2388989 2472.19680003 -74.86586266 2471.97878934 -77.49365234 2471.76513672 C-171.07793882 2464.12649269 -263.25728196 2445.14085263 -485.16796875 2365.203125 C-486.38103285 2364.64745441 -487.59425077 2364.09211951 -488.80761719 2363.53710938 C-515.12925084 2351.48764073 -541.18779523 2338.84031216 -566.46337891 2324.71142578 C-569.33112936 2323.11213328 -572.2080214 2321.53013783 -575.0859375 2319.94921875 C-591.05565813 2311.1383384 -606.65335217 2301.78460423 -622.16796875 2292.203125 C-623.00924316 2291.6860498 -623.85051758 2291.16897461 -624.71728516 2290.63623047 C-659.1031649 2269.46041276 -692.55998308 2246.36775459 -724.42041016 2221.56054688 C-726.39829047 2220.02422184 -728.3826586 2218.49647627 -730.3671875 2216.96875 C-743.73676444 2206.65420556 -756.78654413 2195.97974979 -769.64013672 2185.0300293 C-772.9194242 2182.24031833 -776.24704299 2179.52170956 -779.60546875 2176.828125 C-785.29575736 2172.20268572 -790.6129647 2167.21415913 -795.95703125 2162.19921875 C-798.3415636 2159.96397767 -800.75558935 2157.7761222 -803.23046875 2155.640625 C-808.35530499 2151.20921269 -813.30110412 2146.58307726 -818.26359558 2141.97206116 C-819.49713237 2140.8262522 -820.73131399 2139.6811369 -821.96626282 2138.53684998 C-831.72216903 2129.49065636 -841.26922234 2120.26125776 -850.66235352 2110.83911133 C-852.75746967 2108.73855396 -854.85799185 2106.64350626 -856.95898438 2104.54882812 C-858.32193588 2103.18521689 -859.68457772 2101.82129607 -861.046875 2100.45703125 C-861.66051407 2099.84541641 -862.27415314 2099.23380157 -862.90638733 2098.60365295 C-866.65385559 2094.83611201 -870.20756137 2090.94618337 -873.67344666 2086.91783142 C-875.41788372 2084.91639066 -877.25834859 2083.04689619 -879.16796875 2081.203125 C-882.33886873 2078.07466536 -885.29366835 2074.83457148 -888.1953125 2071.45703125 C-890.13274662 2069.2433689 -892.11926063 2067.08087478 -894.12011719 2064.92456055 C-898.92914695 2059.7400832 -903.48582062 2054.42943025 -907.921875 2048.91796875 C-910.25627465 2046.09639005 -912.68787473 2043.39721788 -915.16796875 2040.703125 C-920.06165135 2035.3734461 -924.63004719 2029.83616012 -929.16796875 2024.203125 C-930.20091108 2022.93805701 -931.23482533 2021.6737822 -932.26953125 2020.41015625 C-938.53930162 2012.74545473 -944.7049145 2005.02258597 -950.6953125 1997.13671875 C-952.41955388 1994.8727944 -954.15314469 1992.61616055 -955.88671875 1990.359375 C-964.51255432 1979.11209491 -972.96708176 1967.76397744 -981.16796875 1956.203125 C-981.72693848 1955.41615234 -982.2859082 1954.62917969 -982.86181641 1953.81835938 C-1007.867263 1918.54143388 -1031.07036557 1881.95093848 -1052.16796875 1844.203125 C-1052.76399902 1843.14109863 -1053.3600293 1842.07907227 -1053.97412109 1840.98486328 C-1068.92921196 1814.29642024 -1083.04155475 1787.2915854 -1095.69482422 1759.43017578 C-1097.07504394 1756.40668484 -1098.4774547 1753.39492196 -1099.890625 1750.38671875 C-1141.02474318 1662.52956653 -1170.22098789 1568.19447437 -1198.16796875 1414.203125 C-1198.34652405 1412.9610025 -1198.34652405 1412.9610025 -1198.52868652 1411.69378662 C-1203.85020601 1374.42015713 -1207.4331976 1336.81766725 -1209.16796875 1299.203125 C-1209.21033661 1298.29739746 -1209.25270447 1297.39166992 -1209.2963562 1296.45849609 C-1210.16806096 1277.24797954 -1210.37088263 1258.05407473 -1210.35546875 1238.828125 C-1210.35520187 1238.07756962 -1210.354935 1237.32701424 -1210.35466003 1236.55371475 C-1210.31446397 1146.10761924 -1201.11157463 1055.59758878 -1174.16796875 938.203125 C-1173.99585876 937.492771 -1173.82374878 936.78241699 -1173.64642334 936.05053711 C-1154.26969021 856.08520107 -1125.59824882 778.4051475 -1090.16796875 704.203125 C-1089.58460308 702.97600419 -1089.00143823 701.74878789 -1088.41845703 700.52148438 C-1081.3158122 685.58188242 -1074.07830191 670.73537601 -1066.16796875 656.203125 C-1065.60416504 655.16317383 -1065.04036133 654.12322266 -1064.45947266 653.05175781 C-1025.61086153 581.53615177 -980.36646688 514.03146244 -917.5625 437.8359375 C-916.09457276 436.11718796 -914.63118634 434.39463504 -913.16796875 432.671875 C-907.68115761 426.22565974 -902.11277998 419.87967829 -896.390625 413.640625 C-894.49375111 411.56039775 -892.63403932 409.45755602 -890.79296875 407.328125 C-886.2583157 402.1201128 -881.55512849 397.06814947 -876.85009766 392.01464844 C-875.21390404 390.25259377 -873.58714249 388.48220764 -871.9609375 386.7109375 C-862.44815308 376.41812905 -852.56864219 366.49565148 -842.66796875 356.578125 C-841.96401978 355.87158783 -841.2600708 355.16505066 -840.53479004 354.43710327 C-838.48838979 352.38477463 -836.43821699 350.336294 -834.38671875 348.2890625 C-833.77878479 347.67914963 -833.17085083 347.06923676 -832.54449463 346.44084167 C-828.82647578 342.74243585 -824.98990851 339.23779194 -821.00598145 335.82705688 C-819.14854389 334.18596263 -817.40279708 332.4726199 -815.66796875 330.703125 C-812.7432976 327.73255094 -809.68177314 324.99583381 -806.5234375 322.27734375 C-804.15149821 320.18862109 -801.83874292 318.04749097 -799.52905273 315.890625 C-794.10317316 310.82488768 -788.57202822 305.99871546 -782.78125 301.34765625 C-780.16949252 299.20437544 -777.66431573 296.9793217 -775.16796875 294.703125 C-769.99597794 289.99685848 -764.60449471 285.59828824 -759.16796875 281.203125 C-757.39668302 279.74534117 -755.62585241 278.2870042 -753.85546875 276.828125 C-748.01355479 272.05062757 -742.08740167 267.38623045 -736.13818359 262.74365234 C-734.05708685 261.11642552 -731.9815745 259.48223692 -729.90625 257.84765625 C-720.22345374 250.24225218 -710.37480136 242.9225867 -700.35205078 235.77246094 C-698.28734355 234.28889978 -696.23876599 232.78609087 -694.1953125 231.2734375 C-679.47255422 220.41636167 -664.16128171 210.41414059 -648.89575195 200.34368896 C-647.41829865 199.36837563 -645.94238915 198.39072435 -644.46679688 197.41259766 C-614.74389494 177.72150189 -583.6545821 159.8905279 -552.16796875 143.203125 C-550.62931152 142.38642334 -550.62931152 142.38642334 -549.05957031 141.55322266 C-475.99473468 102.90167662 -398.93226076 71.31384858 -304.16796875 44.203125 C-303.32272644 43.96871704 -302.47748413 43.73430908 -301.60662842 43.49279785 C-214.15791071 19.29605462 -124.05436919 5.20100026 0 0 Z " fill="#FEFEFE" transform="translate(1210.16796875,-0.203125)"/>
<path d="M0 0 C3.86349391 1.54539756 7.12420698 3.11206551 10.69921875 5.16796875 C11.81264648 5.80621582 12.92607422 6.44446289 14.07324219 7.10205078 C15.27804914 7.79710633 16.48280029 8.4922586 17.6875 9.1875 C18.94288672 9.90894749 20.19842292 10.63013494 21.45410156 11.35107422 C24.68120292 13.2050294 27.90596414 15.06301465 31.13006592 16.92218018 C32.90920925 17.94766871 34.68904049 18.97194872 36.46923828 19.99560547 C53.00612774 29.50474305 69.48991663 39.10351233 85.95898438 48.72949219 C98.38082591 55.98853142 110.82158421 63.21304171 123.28857422 70.39428711 C131.52969191 75.14414532 139.7486691 79.93095041 147.9609375 84.73046875 C155.29283723 89.01222122 162.64267238 93.26210939 170 97.5 C179.33863207 102.8791408 188.65640317 108.29259447 197.9609375 113.73046875 C205.29283723 118.01222122 212.64267238 122.26210939 220 126.5 C229.33863207 131.8791408 238.65640317 137.29259447 247.9609375 142.73046875 C255.29283764 147.01222146 262.64270807 151.26204691 270 155.5 C283.35015665 163.19117469 296.65733128 170.9548296 309.95898438 178.72949219 C322.38082591 185.98853142 334.82158421 193.21304171 347.28857422 200.39428711 C355.52969191 205.14414532 363.7486691 209.93095041 371.9609375 214.73046875 C379.29283723 219.01222122 386.64267238 223.26210939 394 227.5 C403.33863207 232.8791408 412.65640317 238.29259447 421.9609375 243.73046875 C429.29283723 248.01222122 436.64267238 252.26210939 444 256.5 C453.33863207 261.8791408 462.65640317 267.29259447 471.9609375 272.73046875 C479.29283723 277.01222122 486.64267238 281.26210939 494 285.5 C503.33863207 290.8791408 512.65640317 296.29259447 521.9609375 301.73046875 C529.29283723 306.01222122 536.64267238 310.26210939 544 314.5 C553.33863207 319.8791408 562.65640317 325.29259447 571.9609375 330.73046875 C579.29283723 335.01222122 586.64267238 339.26210939 594 343.5 C603.33863207 348.8791408 612.65640317 354.29259447 621.9609375 359.73046875 C629.29283723 364.01222122 636.64267238 368.26210939 644 372.5 C653.33863207 377.8791408 662.65640317 383.29259447 671.9609375 388.73046875 C679.29283723 393.01222122 686.64267238 397.26210939 694 401.5 C703.33863207 406.8791408 712.65640317 412.29259447 721.9609375 417.73046875 C729.29283723 422.01222122 736.64267238 426.26210939 744 430.5 C753.33863207 435.8791408 762.65640317 441.29259447 771.9609375 446.73046875 C779.29283723 451.01222122 786.64267238 455.26210939 794 459.5 C803.33863207 464.8791408 812.65640317 470.29259447 821.9609375 475.73046875 C829.29283723 480.01222122 836.64267238 484.26210939 844 488.5 C853.33863207 493.8791408 862.65640317 499.29259447 871.9609375 504.73046875 C879.29283723 509.01222122 886.64267238 513.26210939 894 517.5 C903.33863207 522.8791408 912.65640317 528.29259447 921.9609375 533.73046875 C929.29283723 538.01222122 936.64267238 542.26210939 944 546.5 C953.33863207 551.8791408 962.65640317 557.29259447 971.9609375 562.73046875 C979.29283723 567.01222122 986.64267238 571.26210939 994 575.5 C1003.33863207 580.8791408 1012.65640317 586.29259447 1021.9609375 591.73046875 C1029.29283723 596.01222122 1036.64267238 600.26210939 1044 604.5 C1053.33067774 609.87455903 1062.64145166 615.28181652 1071.93676758 620.71728516 C1078.36861801 624.47499357 1084.81775056 628.20146802 1091.27587891 631.91381836 C1100.94050324 637.46955954 1110.58208916 643.03278119 1120 649 C1117.20458153 652.01247927 1114.51716336 654.03341574 1110.9140625 655.99609375 C1109.9125415 656.54773193 1108.91102051 657.09937012 1107.87915039 657.66772461 C1106.80528076 658.25175049 1105.73141113 658.83577637 1104.625 659.4375 C1096.36741456 663.99252714 1088.16304846 668.60832688 1080.0625 673.4375 C1072.11860484 678.16683496 1064.13840155 682.82684692 1056.125 687.4375 C1047.73460461 692.26567254 1039.35726478 697.1146922 1031 702 C1021.59015408 707.49955286 1012.15529369 712.95449235 1002.7109375 718.39453125 C995.4604851 722.57349128 988.22511731 726.77740506 981 731 C971.5900967 736.49945536 962.15529437 741.95449196 952.7109375 747.39453125 C945.4604851 751.57349128 938.22511731 755.77740506 931 760 C922.68248208 764.8610296 914.34794347 769.69141103 906 774.5 C893.63977482 781.62086408 881.31532673 788.80183378 869 796 C855.59241282 803.83657983 842.16840721 811.64278608 828.71142578 819.39428711 C821.46078014 823.57327594 814.22527414 827.7773134 807 832 C797.5900967 837.49945536 788.15529437 842.95449196 778.7109375 848.39453125 C771.4604851 852.57349128 764.22511731 856.77740506 757 861 C747.5900967 866.49945536 738.15529437 871.95449196 728.7109375 877.39453125 C721.4604851 881.57349128 714.22511731 885.77740506 707 890 C697.5900967 895.49945536 688.15529437 900.95449196 678.7109375 906.39453125 C671.4604851 910.57349128 664.22511731 914.77740506 657 919 C647.5900967 924.49945536 638.15529437 929.95449196 628.7109375 935.39453125 C621.4604851 939.57349128 614.22511731 943.77740506 607 948 C597.5900967 953.49945536 588.15529437 958.95449196 578.7109375 964.39453125 C571.4604851 968.57349128 564.22511731 972.77740506 557 977 C547.5900967 982.49945536 538.15529437 987.95449196 528.7109375 993.39453125 C521.4604851 997.57349128 514.22511731 1001.77740506 507 1006 C497.5900967 1011.49945536 488.15529437 1016.95449196 478.7109375 1022.39453125 C471.4604851 1026.57349128 464.22511731 1030.77740506 457 1035 C447.5900967 1040.49945536 438.15529437 1045.95449196 428.7109375 1051.39453125 C421.4604851 1055.57349128 414.22511731 1059.77740506 407 1064 C397.5900967 1069.49945536 388.15529437 1074.95449196 378.7109375 1080.39453125 C371.4604851 1084.57349128 364.22511731 1088.77740506 357 1093 C347.5900967 1098.49945536 338.15529437 1103.95449196 328.7109375 1109.39453125 C321.4604851 1113.57349128 314.22511731 1117.77740506 307 1122 C297.5900967 1127.49945536 288.15529437 1132.95449196 278.7109375 1138.39453125 C271.4604851 1142.57349128 264.22511731 1146.77740506 257 1151 C247.5900967 1156.49945536 238.15529437 1161.95449196 228.7109375 1167.39453125 C221.4604851 1171.57349128 214.22511731 1175.77740506 207 1180 C197.5900967 1185.49945536 188.15529437 1190.95449196 178.7109375 1196.39453125 C171.4604851 1200.57349128 164.22511731 1204.77740506 157 1209 C147.5900967 1214.49945536 138.15529437 1219.95449196 128.7109375 1225.39453125 C121.4604851 1229.57349128 114.22511731 1233.77740506 107 1238 C97.5900967 1243.49945536 88.15529437 1248.95449196 78.7109375 1254.39453125 C70.47513464 1259.14142001 62.26121432 1263.92481696 54.05444336 1268.72167969 C45.47978691 1273.72962365 36.87926861 1278.69206921 28.27148438 1283.64282227 C23.38227887 1286.45798866 18.50143734 1289.28415464 13.65234375 1292.16796875 C12.85691162 1292.64073242 12.06147949 1293.11349609 11.24194336 1293.60058594 C9.79114478 1294.46572511 8.34257863 1295.33462372 6.89672852 1296.20800781 C2.21791331 1299 2.21791331 1299 0 1299 C0 870.33 0 441.66 0 0 Z " fill="#3182F7" transform="translate(821,588)"/>
</svg>
